<?xml version="1.0" encoding="utf-8"?>
<svg viewBox="0 0 300 300" xmlns="http://www.w3.org/2000/svg" xmlns:bx="http://www.boxy-svg.com/bx">
  <defs/>
  <path d="M 120.02750396728516 161.327392578125 L 139.40879821777344 105.3717041015625 L 158.7340545654297 161.4136199951172 L 154.72628784179688 162.5778045654297 L 139.40879821777344 116.9379653930664 L 124.09132385253906 162.26519775390625 L 120.02750396728516 161.327392578125 Z " style="stroke: rgb(24, 21, 171); fill: rgb(24, 21, 171);" transform="matrix(1.291244029998779, 0, 0, 1.3112437725067136, -50.25013732910156, -88.16575622558594)"/>
  <g transform="matrix(1.291244029998779, 0, 0, 1.3231199226503065, -50.25013732910156, -89.34740416891606)">
    <rect x="145.5263214111328" y="47.01482391357422" width="26.62286376953125" height="3.5874764919281006" style="fill: rgb(24, 21, 171); stroke: rgb(24, 21, 171);" transform="matrix(1, 0, 0, 1.0000009536743164, 15.943665504455552, 58.302425384521484)"/>
    <rect x="161.4662322998047" y="107.04573059082031" width="3.776292324066162" height="54.94505310058594" style="fill: rgb(24, 21, 171); stroke: rgb(24, 21, 171);" transform="matrix(1, 0, 0, 1, -1.4210854715202004e-14, 0)"/>
    <rect x="162.4103240966797" y="158.40330505371094" width="24.734710693359375" height="3.398665189743042" style="fill: rgb(24, 21, 171); stroke: rgb(24, 21, 171);" transform="matrix(1, 0, 0, 1, 0.21179983019825954, 0.21179983019828796)"/>
  </g>
  <path d="M 120.34010314941406 161.9525909423828" style="stroke: black; fill: rgba(28, 8, 179, 0.819608);"/>
  <path d="M 188.65554809570312 107.23455047607422 Z " style="stroke: black; fill: none;"/>
  <path d="M 203.00546264648438 121.39564514160156" style="stroke: black; fill: none;"/>
  <path d="M 354.6210021972656 221.14053344726562" style="stroke: black; fill: none;"/>
  <path style="fill: rgb(255, 0, 0);" d="M 297.9837341308594 131.46673583984375 C 256.2047119140625 100.58023071289062 204.09619140625 83.03850555419922 149.3461151123047 83.03850555419922 C 90.38894653320312 83.03850555419922 38.44970703125 102.19432067871094 -2.0162711143493652 133.20932006835938 C 43.610107421875 113.20409393310547 95.06180572509766 101.84042358398438 150.6766815185547 101.84042358398438 C 202.29934692382812 101.84042358398438 252.35638427734375 112.23705291748047 297.9837341308594 131.46673583984375 Z " transform="matrix(0.9999999999999999, 0, 0, 0.9999999999999999, 2.060354709625244, 0.6867849032084141)" bx:origin="0.49985307455062866 0.5000002384185791"/>
</svg>