<?xml version="1.0" encoding="utf-8"?>
<svg viewBox="0 0 300 300" xmlns="http://www.w3.org/2000/svg">
  <defs/>
  <g transform="matrix(1.2912440299987793, 0, 0, 1.3112437725067139, -50.250137329101555, -88.16575622558595)">
    <path d="M 120.02750396728516 161.327392578125 L 139.40879821777344 105.3717041015625 L 158.7340545654297 161.4136199951172 L 154.72628784179688 162.5778045654297 L 139.40879821777344 116.9379653930664 L 124.09132385253906 162.26519775390625 L 120.02750396728516 161.327392578125 Z " style="stroke: rgb(24, 21, 171); fill: rgb(24, 21, 171);" transform="matrix(0.9999999999999999, 0, 0, 0.9999999999999999, 0, 0)"/>
    <g transform="matrix(0.9999999999999999, 0, 0, 1.0090571641921997, 0, -0.9011656641960144)">
      <rect x="145.5263214111328" y="47.01482391357422" width="26.62286376953125" height="3.5874764919281006" style="fill: rgb(24, 21, 171); stroke: rgb(24, 21, 171);" transform="matrix(1, 0, 0, 1.0000009536743164, 15.943665504455552, 58.302425384521484)"/>
      <rect x="161.4662322998047" y="107.04573059082031" width="3.776292324066162" height="54.94505310058594" style="fill: rgb(24, 21, 171); stroke: rgb(24, 21, 171);" transform="matrix(1, 0, 0, 1, -1.4210854715202004e-14, 0)"/>
      <rect x="162.4103240966797" y="158.40330505371094" width="24.734710693359375" height="3.398665189743042" style="fill: rgb(24, 21, 171); stroke: rgb(24, 21, 171);" transform="matrix(1, 0, 0, 1, 0.21179983019825954, 0.21179983019828796)"/>
    </g>
    <path d="M 38.91606521606445 176.0071258544922 L 53.523895263671875 167.65977478027344 L 67.56578063964844 159.11282348632812 L 89.78211212158203 148.3596649169922 L 107.76097869873047 142.39759826660156 L 123.00062561035156 138.1601104736328 L 137.2750701904297 135.9312744140625 L 153.34408569335938 134.96607971191406 L 166.90850830078125 135.31387329101562 L 181.1685333251953 136.70509338378906 L 195.7763671875 139.487548828125 L 210.5900115966797 143.80320739746094 L 225.354248046875 149.1622772216797 L 242.65191650390625 157.36761474609375 L 255.94671630859375 165.5729522705078 C 255.94671630859375 165.5729522705078 271.2501525878906 174.9636993408203 271.2501525878906 175.31150817871094 C 271.2501525878906 175.65931701660156 254.90330505371094 167.31198120117188 254.90330505371094 167.31198120117188 L 241.60848999023438 161.74710083007812 L 224.79444885253906 156.2110137939453 L 210.34921264648438 152.0867462158203 L 194.03733825683594 148.8782958984375 L 181.51634216308594 146.7914581298828 L 167.95191955566406 146.09585571289062 L 154.3874969482422 146.09585571289062 L 136.6494140625 146.7914581298828 L 123.43280792236328 148.53048706054688 L 107.43375396728516 150.9651336669922 L 89.34786987304688 155.83441162109375 L 68.82733917236328 163.13832092285156 L 52.13267517089844 170.44224548339844 L 38.91606521606445 176.0071258544922 Z " style="stroke: rgb(237, 66, 14); fill: rgb(237, 66, 14);" transform="matrix(0.9999999999999999, 0, 0, 0.9999999999999999, 0, -2)"/>
  </g>
  <path d="M 120.34010314941406 161.9525909423828" style="stroke: black; fill: rgba(28, 8, 179, 0.819608);"/>
  <path d="M 188.65554809570312 107.23455047607422 Z " style="stroke: black; fill: none;"/>
  <path d="M 203.00546264648438 121.39564514160156" style="stroke: black; fill: none;"/>
  <path d="M 354.6210021972656 221.14053344726562" style="stroke: black; fill: none;"/>
</svg>