<?xml version="1.0" encoding="utf-8"?>
<svg viewBox="0 0 500 500" xmlns="http://www.w3.org/2000/svg">
  <defs>
    <linearGradient id="gradient-1" gradientUnits="userSpaceOnUse" x1="249.99992418289185" y1="0.5415008068084717" x2="249.99992418289185" y2="501.080929517746" gradientTransform="matrix(0.999994591306795, -0.0032894504515310597, 0.003241496282969936, 0.9854133981918736, -1.6229100031395831, 8.131482870526808)" spreadMethod="pad">
      <stop style="stop-color: rgb(103, 210, 201);" offset="0"/>
      <stop style="stop-color: rgb(165, 165, 165);" offset="1"/>
    </linearGradient>
    <linearGradient id="gradient-2" gradientUnits="userSpaceOnUse" x1="534.61181640625" y1="13.791199684143066" x2="534.61181640625" y2="511.08563327789307">
      <stop style="stop-color: rgb(216, 216, 216);" offset="0"/>
      <stop style="stop-color: rgb(165, 165, 165);" offset="1"/>
    </linearGradient>
  </defs>
  <rect x="-1.4866479635238647" y="0.5415007472038269" width="502.9731750488281" height="500.5394287109375" style="fill: url(#gradient-1);"/>
  <rect x="522.4440083347824" y="13.172920943657346" width="24.337453626711905" height="475.0000368265755" style="fill: rgb(187, 195, 80);" transform="matrix(1.000003, 0, 0, 1, -283.802526, 11.827079)"/>
  <g>
    <rect x="1.009534239768982" y="437.74139404296875" width="238.5066375732422" height="62.777957916259766" style="fill: rgb(119, 40, 40);" transform="matrix(0.9999999999999999, 0, 0, 0.9999999999999999, -2.842170943040401e-14, 0)"/>
    <rect x="1.009534239768982" y="437.74139404296875" width="238.5066375732422" height="62.777957916259766" style="fill: rgb(177, 62, 62);" transform="matrix(0.9999999999999999, 0, 0, 0.9999999999999999, -5.684341886080802e-14, -62.40366744995117)"/>
  </g>
  <g transform="matrix(0.9999999999999999, 0, 0, 0.9999999999999999, 262.09539857476204, -1.8721099898197338)">
    <rect x="1.009534239768982" y="437.74139404296875" width="238.5066375732422" height="62.777957916259766" style="fill: rgb(119, 40, 40);" transform="matrix(0.9999999999999999, 0, 0, 0.9999999999999999, -2.842170943040401e-14, 0)"/>
    <rect x="1.009534239768982" y="437.74139404296875" width="238.5066375732422" height="62.777957916259766" style="fill: rgb(177, 62, 62);" transform="matrix(0.9999999999999999, 0, 0, 0.9999999999999999, -5.684341886080802e-14, -62.40366744995117)"/>
  </g>
  <g>
    <ellipse style="fill: rgb(8, 156, 99);" cx="270.37661743" cy="73.61386871" rx="31.83862305" ry="31.83859253" transform="matrix(1, 0, 0, 1, -18.92827606201172, -20.376712799072237)"/>
    <ellipse style="fill: rgb(8, 156, 99);" cx="270.37661743" cy="73.61386871" rx="31.83862305" ry="31.83859253" transform="matrix(1, 0, 0, 1, -20.201820373535043, 94.24230194091794)"/>
  </g>
  <rect x="-0.0000015499691272680138" y="97.8114013671875" width="499.9999737549115" height="20.376712799072266" style="fill: rgb(8, 156, 99);"/>
  <g transform="matrix(6.123233601181349e-17, 1, -1, 6.123233601181349e-17, 361.35821533203125, -142.8118133544922)">
    <ellipse style="fill: rgb(8, 156, 99);" cx="270.37661743" cy="73.61386871" rx="31.83862305" ry="31.83859253" transform="matrix(1, 0, 0, 1, -18.92827606201172, -20.376712799072237)"/>
    <ellipse style="fill: rgb(8, 156, 99);" cx="270.37661743" cy="73.61386871" rx="31.83862305" ry="31.83859253" transform="matrix(1, 0, 0, 1, -20.201820373535043, 94.24230194091794)"/>
  </g>
  <path d="M 239.1048583984375 81.740966796875 L 239.1048583984375 139.72161865234375 C 242.62841796875 138.3096160888672 246.5018310546875 137.52407836914062 250.6368408203125 137.52407836914062 C 255.12042236328125 137.52407836914062 259.4697265625 138.50474548339844 263.44232177734375 140.3204803466797 L 263.44232177734375 82.33982849121094 C 259.91876220703125 83.75183868408203 256.04534912109375 84.53736114501953 251.91033935546875 84.53736114501953 C 247.42681884765625 84.53736114501953 243.07745361328125 83.55670166015625 239.1048583984375 81.740966796875 Z " style="fill: rgb(8, 156, 99);"/>
</svg>